<svg width="26" height="24" viewBox="0 0 26 24" fill="none" xmlns="http://www.w3.org/2000/svg">
<path d="M20.0661 9.20277L20.0916 9.17656L21.2421 8.03451C21.3064 7.97067 21.3575 7.89487 21.3923 7.81146C21.4271 7.72804 21.445 7.63863 21.445 7.54834C21.445 7.45804 21.4271 7.36864 21.3923 7.28522C21.3575 7.2018 21.3064 7.12601 21.2421 7.06217L20.2608 6.08769C20.1965 6.02383 20.1202 5.97318 20.0362 5.93862C19.9522 5.90406 19.8621 5.88628 19.7712 5.88628C19.6803 5.88628 19.5902 5.90406 19.5062 5.93862C19.4222 5.97318 19.3459 6.02383 19.2816 6.08769L18.2137 7.1481C16.9749 6.13699 15.4851 5.47526 13.9003 5.23222V3.74987H15.2849C15.4685 3.74987 15.6446 3.67744 15.7744 3.54851C15.9042 3.41959 15.9772 3.24473 15.9772 3.0624V1.68747C15.9772 1.50514 15.9042 1.33028 15.7744 1.20135C15.6446 1.07243 15.4685 1 15.2849 1H9.74644C9.56301 1.00057 9.38725 1.07318 9.25754 1.20198C9.12783 1.33078 9.05471 1.50531 9.05414 1.68747V3.0624C9.05471 3.24455 9.12783 3.41909 9.25754 3.54789C9.38725 3.67669 9.56301 3.7493 9.74644 3.74987H11.131V5.23222C9.05671 5.55216 7.16035 6.58234 5.77031 8.1444C4.38027 9.70646 3.58408 11.702 3.5196 13.7856C3.37032 18.6808 7.4428 22.9225 12.3737 22.9989C17.4107 23.075 21.5156 19.046 21.5156 14.0619C21.5197 12.3365 21.0159 10.6476 20.0661 9.20277ZM11.6663 17.2221C11.7603 17.2207 11.851 17.2564 11.9186 17.3215C11.9861 17.3865 12.0248 17.4754 12.0263 17.5688V18.5274C12.0248 18.6208 11.9861 18.7097 11.9186 18.7748C11.851 18.8398 11.7603 18.8755 11.6663 18.8741H8.08145C7.983 18.8753 7.88538 18.8561 7.79476 18.8179C7.70414 18.7797 7.62248 18.7232 7.55494 18.6521C7.48741 18.5809 7.43546 18.4967 7.40238 18.4046C7.3693 18.3125 7.35581 18.2146 7.36275 18.1171C7.48304 16.6038 7.99751 15.6504 9.02644 14.1912C9.91 12.937 10.199 12.5877 10.199 11.5127C10.199 10.7857 10.1216 10.4699 9.67072 10.4699C9.26442 10.4699 9.12164 10.7878 9.12164 11.4443V11.6691C9.1209 11.7153 9.111 11.761 9.09249 11.8035C9.07398 11.8459 9.04722 11.8844 9.01375 11.9166C8.98028 11.9488 8.94075 11.9741 8.89742 11.9911C8.85409 12.0082 8.8078 12.0165 8.76121 12.0158H7.68381C7.63721 12.0165 7.59093 12.0082 7.5476 11.9911C7.50426 11.9741 7.46473 11.9488 7.43126 11.9166C7.39779 11.8844 7.37104 11.8459 7.35253 11.8035C7.33402 11.761 7.32411 11.7153 7.32338 11.6691V11.4942C7.32338 10.3212 7.6903 8.90587 9.76505 8.90587C11.6256 8.90587 12.1695 10.0166 12.1695 11.5268C12.1695 13.0556 11.6312 13.7272 10.6832 15.0205C10.183 15.665 9.61836 16.5488 9.54048 17.2204L11.6663 17.2221ZM17.7079 16.138C17.7079 17.6487 17.1757 18.8741 15.2316 18.8741C13.346 18.8741 12.8618 17.6058 12.8618 16.1479V11.6222C12.8618 9.87219 13.709 8.90587 15.2935 8.90587C16.8858 8.90587 17.7079 9.87864 17.7079 11.5397V16.138ZM15.2792 10.527C14.8721 10.527 14.7068 10.8493 14.7068 11.3863V16.3683C14.7068 16.9316 14.8621 17.253 15.2792 17.253C15.6964 17.253 15.8417 16.9093 15.8417 16.3391V11.3575C15.8426 10.8733 15.7124 10.527 15.2792 10.527Z" fill="#E388A0"/>
</svg>
