<svg width="25" height="24" viewBox="0 0 25 24" fill="none" xmlns="http://www.w3.org/2000/svg">
<path d="M6.41158 16.266C5.32886 16.266 4.44822 15.8981 3.78786 15.1679C3.12751 14.4376 2.69413 13.3539 2.44177 11.7771C2.07017 9.45345 2.43889 7.49492 3.47995 6.26262C4.0929 5.53684 4.8974 5.11722 5.80629 5.04968C6.58445 4.99115 7.74762 5.28786 8.87105 7.03073C9.5745 8.1221 10.1094 9.57187 10.3388 11.0081C10.616 12.742 10.4096 14.0184 9.70763 14.9094C9.15023 15.6172 8.29305 16.0557 7.15957 16.2151C6.91191 16.2493 6.6619 16.2663 6.41158 16.266Z" fill="#F6A682"/>
<path d="M8.28593 22.3349C7.65335 22.3349 7.01214 22.1444 6.43463 21.7784C5.60127 21.2475 5.02444 20.4288 4.82947 19.5002C4.69299 18.8402 4.77488 18.3156 5.07944 17.8956C5.57411 17.2134 6.46193 17.0599 7.40146 16.8969C7.50059 16.8798 7.60115 16.8627 7.70315 16.8443C7.9196 16.8055 8.14084 16.7542 8.35537 16.7042C9.15891 16.5178 9.99022 16.3247 10.6764 16.783C11.1357 17.0892 11.3947 17.6097 11.4723 18.3733C11.5604 19.2544 11.3593 20.1337 10.9058 20.8496C10.4178 21.6199 9.68614 22.1291 8.84669 22.284C8.66195 22.3179 8.47416 22.335 8.28593 22.3349Z" fill="#F6A682"/>
<path d="M18.1078 11.9433C17.8577 11.9425 17.6081 11.9245 17.3608 11.8893C16.2278 11.7317 15.3706 11.2927 14.8132 10.5836C14.1112 9.6926 13.9034 8.41663 14.1821 6.68231C14.4114 5.24471 14.9449 3.7963 15.645 2.70898C16.7627 0.972413 17.9273 0.671205 18.7098 0.724333C19.6158 0.786465 20.4188 1.20023 21.0327 1.92196C22.081 3.15426 22.4526 5.11864 22.0795 7.45267C21.8272 9.0285 21.3996 10.1068 20.7335 10.8434C20.0673 11.58 19.1905 11.9433 18.1078 11.9433Z" fill="#F6A682"/>
<path d="M16.2365 18.0089C16.0487 18.0089 15.8614 17.9919 15.6771 17.9581C14.8363 17.8032 14.1045 17.294 13.618 16.5236C13.1645 15.8077 12.9634 14.9284 13.0515 14.0473C13.1281 13.2819 13.3867 12.7632 13.8474 12.4566C14.5336 11.9987 15.3649 12.1914 16.1685 12.3783C16.383 12.4278 16.6042 12.4791 16.8207 12.5183L17.1219 12.571C18.0619 12.7335 18.9497 12.8862 19.4444 13.5692C19.7489 13.9892 19.8308 14.5147 19.6944 15.1738C19.4996 16.1025 18.9227 16.9214 18.0892 17.4525C17.5083 17.8189 16.8671 18.0089 16.2365 18.0089Z" fill="#F6A682"/>
</svg>
