<svg width="25" height="24" viewBox="0 0 25 24" fill="none" xmlns="http://www.w3.org/2000/svg">
<path d="M7.89029 2.03455C7.21217 3.55369 7.0015 5.25083 7.28663 6.89733C7.57176 8.54383 8.33901 10.0606 9.48502 11.2433C10.631 12.426 12.1007 13.2178 13.6961 13.5121C15.2916 13.8063 16.936 13.5889 18.4081 12.8891C17.5325 16.9582 14.0151 20 9.80885 20C4.94372 20 1 15.93 1 10.9091C1 6.56818 3.94744 2.93818 7.89029 2.03455ZM15.2386 2.08273L15.9751 2.27273V3.18182L15.2386 3.37182C14.9289 3.45176 14.6461 3.61705 14.4203 3.85003C14.1946 4.083 14.0344 4.37491 13.9569 4.69455L13.7728 5.45455H12.892L12.7078 4.69455C12.6304 4.37491 12.4702 4.083 12.2445 3.85003C12.0187 3.61705 11.7359 3.45176 11.4262 3.37182L10.6897 3.18182V2.27273L11.4262 2.08273C11.7357 2.00264 12.0184 1.83729 12.244 1.60432C12.4696 1.37135 12.6296 1.07952 12.707 0.76L12.892 0H13.7728L13.9569 0.76C14.0344 1.07964 14.1946 1.37154 14.4203 1.60452C14.6461 1.8375 14.9289 2.00279 15.2386 2.08273ZM19.6431 6.62818L20.3795 6.81818V7.72727L19.6431 7.91727C19.3333 7.99721 19.0505 8.1625 18.8247 8.39548C18.599 8.62846 18.4388 8.92036 18.3614 9.24L18.1773 10H17.2964L17.1123 9.24C17.0348 8.92036 16.8747 8.62846 16.6489 8.39548C16.4232 8.1625 16.1403 7.99721 15.8306 7.91727L15.0942 7.72727V6.81818L15.8306 6.62818C16.1403 6.54824 16.4232 6.38295 16.6489 6.14997C16.8747 5.917 17.0348 5.62509 17.1123 5.30545L17.2964 4.54545H18.1773L18.3614 5.30545C18.4388 5.62509 18.599 5.917 18.8247 6.14997C19.0505 6.38295 19.3333 6.54824 19.6431 6.62818Z" fill="#7550E2"/>
</svg>
