<svg width="25" height="24" viewBox="0 0 25 24" fill="none" xmlns="http://www.w3.org/2000/svg">
<path d="M13.7982 10.5114L11.8118 14.5049C11.572 14.991 10.8766 14.9749 10.6568 14.4808L8.38262 9.40651L7.18359 12.2871H3.42264L10.7167 19.78C11.0005 20.0733 11.4601 20.0733 11.7439 19.78L19.042 12.2871H14.6815L13.7982 10.5114ZM19.9333 3.6854L19.8374 3.58496C17.779 1.47168 14.4097 1.47168 12.3474 3.58496L11.2323 4.734L10.1172 3.58897C8.05889 1.47168 4.68561 1.47168 2.62728 3.58897L2.53136 3.6854C0.58493 5.68618 0.500998 8.87216 2.23959 11.0015H6.33228L7.76712 7.53831C7.98295 7.02003 8.71036 7.00798 8.94217 7.52224L11.2683 12.717L13.2267 8.78377C13.4625 8.30969 14.134 8.30969 14.3698 8.78377L15.4729 11.0015H20.225C21.9636 8.87216 21.8797 5.68618 19.9333 3.6854Z" fill="#EF80B2"/>
</svg>
