<svg width="25" height="24" viewBox="0 0 25 24" fill="none" xmlns="http://www.w3.org/2000/svg">
<path d="M12.3034 2C13.3964 2 14.4447 2.46825 15.2176 3.30175C15.9905 4.13524 16.4247 5.2657 16.4247 6.44444C16.4247 7.25556 16.229 8.01111 15.8683 8.66667H18.4854C19.4642 8.66667 20.2885 9.41111 20.4946 10.4C22.5655 19.3 22.6068 19.5333 22.6068 19.7778C22.6068 20.3671 22.3896 20.9324 22.0032 21.3491C21.6167 21.7659 21.0926 22 20.5461 22H4.06068C3.51415 22 2.99001 21.7659 2.60356 21.3491C2.21711 20.9324 2 20.3671 2 19.7778C2 19.5333 2.04121 19.3 4.11219 10.4C4.31826 9.41111 5.14253 8.66667 6.12135 8.66667H8.73841C8.37009 7.99378 8.17781 7.2258 8.18203 6.44444C8.18203 5.2657 8.61624 4.13524 9.38914 3.30175C10.162 2.46825 11.2103 2 12.3034 2ZM12.3034 4.22222C11.7569 4.22222 11.2327 4.45635 10.8463 4.8731C10.4598 5.28984 10.2427 5.85507 10.2427 6.44444C10.2427 7.03381 10.4598 7.59905 10.8463 8.01579C11.2327 8.43254 11.7569 8.66667 12.3034 8.66667C12.8499 8.66667 13.374 8.43254 13.7605 8.01579C14.1469 7.59905 14.3641 7.03381 14.3641 6.44444C14.3641 5.85507 14.1469 5.28984 13.7605 4.8731C13.374 4.45635 12.8499 4.22222 12.3034 4.22222ZM6.12135 10.8889V19.7778H8.18203V17L9.21236 18.1111V19.7778H11.273V17.5556L9.21236 15.3333L11.273 13.1111V10.8889H9.21236V12.5556L8.18203 13.6667V10.8889H6.12135ZM15.3944 10.8889C14.2507 10.8889 13.3337 11.8778 13.3337 13.1111V17.5556C13.3337 18.7889 14.2507 19.7778 15.3944 19.7778H18.4854V14.2222H16.4247V17.5556H15.3944V13.1111H18.4854V10.8889H15.3944Z" fill="#788F96"/>
</svg>
