<svg width="25" height="24" viewBox="0 0 25 24" fill="none" xmlns="http://www.w3.org/2000/svg">
<g clip-path="url(#clip0_4741_25400)">
<path d="M4 9.34875C4 8.80253 4.25372 8.10925 4.74165 7.2269C5.22958 6.34454 5.71751 5.60925 6.16641 5.04202C6.28351 4.89496 6.43965 4.68488 6.6153 4.45378C6.79096 4.22269 6.90806 4.09664 6.92758 4.07563L7.64971 4.97899C8.19619 5.63026 8.68412 6.36555 9.13302 7.2269C9.58191 8.08824 9.81612 8.78152 9.81612 9.34875C9.81612 10.2101 9.54288 10.9664 8.97688 11.5756C8.4304 12.1849 7.7473 12.5 6.92758 12.5C6.12737 12.5 5.42475 12.1849 4.85875 11.5756C4.29276 10.9454 4 10.2101 4 9.34875ZM10.0894 18.0672C10.0894 17.458 10.2455 16.7647 10.5578 15.9454C10.87 15.1471 11.2604 14.3908 11.7288 13.7185C12.6266 12.437 13.4658 11.3656 14.2856 10.5042C14.3636 10.4412 14.5393 10.2731 14.793 10L15.2809 10.5042C16.0421 11.2815 16.9009 12.353 17.8572 13.6975C18.3646 14.4118 18.755 15.1681 19.0673 15.9664C19.3795 16.7647 19.5357 17.458 19.5357 18.0672C19.5357 19.5168 19.0868 20.7143 18.1695 21.7017C17.2522 22.6891 16.1202 23.1723 14.793 23.1723C13.4658 23.1723 12.3533 22.6681 11.436 21.6807C10.5187 20.6933 10.0894 19.4748 10.0894 18.0672ZM13.056 3.57143C13.056 2.66807 13.7 1.47059 15.0077 0L15.4956 0.588236C15.8664 1.05042 16.1982 1.55462 16.491 2.14286C16.7837 2.71009 16.9399 3.19328 16.9399 3.57143C16.9399 4.15967 16.7447 4.62185 16.3739 5.02101C16.0031 5.39916 15.5542 5.60925 15.0077 5.60925C14.4417 5.60925 13.9733 5.42017 13.6024 5.02101C13.2511 4.62185 13.056 4.13866 13.056 3.57143Z" fill="#8FAFF3"/>
</g>
<defs>
<clipPath id="clip0_4741_25400">
<rect width="24.518" height="23.0521" fill="white"/>
</clipPath>
</defs>
</svg>
